<?xml version="1.0" encoding="utf-8"?>
<!-- Generator: Adobe Illustrator 27.9.0, SVG Export Plug-In . SVG Version: 6.00 Build 0)  -->
<svg version="1.1" id="Layer_1" xmlns="http://www.w3.org/2000/svg" xmlns:xlink="http://www.w3.org/1999/xlink" x="0px" y="0px"
	 viewBox="0 0 120 120" style="enable-background:new 0 0 120 120;" xml:space="preserve">
<style type="text/css">
	.st0{fill:none;stroke:#000000;stroke-width:8;stroke-linecap:round;stroke-linejoin:round;stroke-miterlimit:10;}
</style>
<path class="st0" d="M106.6,53c2.1-2.9,5.2-4.5,8.5-4.9c-1.4-6.7-4.1-13-7.7-18.6c-1.6,1.3-3.5,2.2-5.6,2.5
	C95.2,33,89.1,28.6,88,22.1c-0.6-3.5,0.4-6.9,2.5-9.4C84.9,9,78.6,6.4,71.9,4.9c-0.2,2-0.9,4-2.2,5.7C65.9,16,58.4,17.2,53,13.4
	c-2.9-2.1-4.5-5.2-4.9-8.5c-6.7,1.4-13,4.1-18.6,7.7c1.3,1.6,2.2,3.5,2.5,5.6c1.1,6.5-3.4,12.7-9.9,13.8c-3.5,0.6-6.9-0.4-9.4-2.5
	C9,35.1,6.4,41.4,4.9,48.1c2,0.2,4,0.9,5.7,2.2c5.4,3.9,6.6,11.4,2.7,16.7c-2.1,2.9-5.2,4.5-8.5,4.9c1.4,6.7,4.1,13,7.7,18.6
	c1.6-1.3,3.5-2.2,5.6-2.5c6.5-1.1,12.7,3.4,13.8,9.9c0.6,3.5-0.4,6.9-2.5,9.4c5.6,3.6,11.9,6.3,18.6,7.7c0.2-2,0.9-4,2.2-5.7
	c3.9-5.4,11.4-6.6,16.7-2.7c2.9,2.1,4.5,5.2,4.9,8.5c6.7-1.4,13-4.1,18.6-7.7c-1.3-1.6-2.2-3.5-2.5-5.6C87,95.2,91.4,89.1,97.9,88
	c3.5-0.6,6.9,0.4,9.4,2.5c3.6-5.6,6.3-11.9,7.7-18.6c-2-0.2-4-0.9-5.7-2.2C104,65.9,102.8,58.4,106.6,53z M60,84.5
	c-13.5,0-24.5-11-24.5-24.5c0-13.5,11-24.5,24.5-24.5c13.5,0,24.5,11,24.5,24.5C84.5,73.5,73.5,84.5,60,84.5z"/>
</svg>
