<svg width="155" height="29" viewBox="0 0 155 29" fill="none" xmlns="http://www.w3.org/2000/svg">
<path d="M149.69 26.964H131.906V21.96H135.218V6.768H131.906V1.764H148.826V0H153.83V11.592H148.826V6.768C148.826 6.744 148.814 6.732 148.79 6.732C148.79 6.708 148.778 6.696 148.754 6.696H140.258V11.988H142.49C142.514 11.988 142.526 11.988 142.526 11.988C142.55 11.964 142.562 11.952 142.562 11.952V10.404H146.234V18.288H142.562V16.776C142.562 16.776 142.55 16.776 142.526 16.776C142.526 16.752 142.514 16.74 142.49 16.74H140.258V22.068H149.51C149.534 22.068 149.546 22.068 149.546 22.068C149.546 22.044 149.546 22.032 149.546 22.032C149.57 22.032 149.582 22.02 149.582 21.996V17.1H154.694V28.98H149.69V26.964Z" fill="white"/>
<path d="M118.09 21.9602H121.402V6.76816H118.09V1.76416H129.97V6.76816H126.658V21.9602H129.97V26.9642H118.09V21.9602Z" fill="white"/>
<path d="M92.3616 6.76816H89.2656V1.76416H102.226V6.76816H98.5176L104.206 21.9242H104.458L110.11 6.76816H106.33V1.76416H118.966V6.76816H115.942L108.166 26.9642H100.138L92.3616 6.76816Z" fill="white"/>
<path d="M70.3406 25.326C72.3242 26.442 74.5441 27 77 27C79.456 27 81.6757 26.442 83.6594 25.326C85.6431 24.21 87.1898 22.6667 88.2997 20.6959C89.4332 18.7014 90 16.4694 90 14H84.4387C84.4387 15.4721 84.1199 16.8018 83.4823 17.989C82.8447 19.1525 81.9591 20.0667 80.8256 20.7315C79.7157 21.3726 78.4405 21.6932 77 21.6932C75.5595 21.6932 74.2725 21.3726 73.139 20.7315C72.0291 20.0667 71.1553 19.1525 70.5177 17.989C69.8801 16.8018 69.5613 15.4721 69.5613 14H64C64 16.4694 64.555 18.7014 65.6649 20.6959C66.7984 22.6667 68.3569 24.21 70.3406 25.326Z" fill="white"/>
<path d="M48.8585 27.5041C46.3625 27.5041 44.1065 26.9401 42.0905 25.8121C40.0745 24.6841 38.4905 23.1241 37.3385 21.1321C36.2105 19.1161 35.6465 16.8601 35.6465 14.3641C35.6465 11.8681 36.2105 9.62412 37.3385 7.63212C38.4905 5.61612 40.0745 4.04412 42.0905 2.91612C44.1065 1.78812 46.3625 1.22412 48.8585 1.22412C51.3545 1.22412 53.6105 1.78812 55.6265 2.91612C57.6425 4.04412 59.2145 5.61612 60.3425 7.63212C61.4945 9.62412 62.0705 11.8681 62.0705 14.3641C62.0705 16.8601 61.4945 19.1161 60.3425 21.1321C59.2145 23.1241 57.6425 24.6841 55.6265 25.8121C53.6105 26.9401 51.3545 27.5041 48.8585 27.5041ZM48.8585 22.1401C50.3225 22.1401 51.6185 21.8161 52.7465 21.1681C53.8985 20.4961 54.7985 19.5721 55.4465 18.3961C56.0945 17.1961 56.4185 15.8521 56.4185 14.3641C56.4185 12.8761 56.0945 11.5441 55.4465 10.3681C54.7985 9.16812 53.8985 8.24412 52.7465 7.59612C51.6185 6.92412 50.3225 6.58812 48.8585 6.58812C47.3945 6.58812 46.0865 6.92412 44.9345 7.59612C43.8065 8.24412 42.9185 9.16812 42.2705 10.3681C41.6225 11.5441 41.2985 12.8761 41.2985 14.3641C41.2985 15.8521 41.6225 17.1961 42.2705 18.3961C42.9185 19.5721 43.8065 20.4961 44.9345 21.1681C46.0865 21.8161 47.3945 22.1401 48.8585 22.1401Z" fill="white"/>
<path d="M0 21.9602H3.276V6.76816H0V1.76416H11.448L16.956 20.3042L22.464 1.76416H33.84V6.76816H30.6V21.9602H33.84V26.9642H22.752V21.9602H25.524V7.23616H25.344L19.296 26.9642H14.508L8.46 7.23616H8.316V21.9602H11.088V26.9642H0V21.9602Z" fill="white"/>
<circle cx="77" cy="13" r="4" fill="#FFD600"/>
</svg>
